<!DOCTYPE svg PUBLIC "-//W3C//DTD SVG 1.1//EN" "http://www.w3.org/Graphics/SVG/1.1/DTD/svg11.dtd">
<!-- Uploaded to: SVG Repo, www.svgrepo.com, Transformed by: SVG Repo Mixer Tools -->
<svg fill="#f5950f" version="1.1" id="Layer_1" xmlns="http://www.w3.org/2000/svg" xmlns:xlink="http://www.w3.org/1999/xlink" width="800px" height="800px" viewBox="0 0 512 512" enable-background="new 0 0 512 512" xml:space="preserve" stroke="#f5950f">
<g id="SVGRepo_bgCarrier" stroke-width="0"/>
<g id="SVGRepo_tracerCarrier" stroke-linecap="round" stroke-linejoin="round"/>
<g id="SVGRepo_iconCarrier"> <g> <path d="M78.43,308.465c0,14.725,11.932,26.64,26.64,26.64c14.692,0,26.638-11.916,26.638-26.64 c0-14.692-11.945-26.638-26.638-26.638C90.361,281.827,78.43,293.773,78.43,308.465z"/> <path d="M149.446,234.435c0-9.821-7.932-17.755-17.739-17.755c-9.82,0-17.769,7.934-17.769,17.755 c0,9.804,7.948,17.754,17.769,17.754C141.515,252.189,149.446,244.239,149.446,234.435z"/> <path d="M152.429,323.586c0,9.804,7.935,17.739,17.738,17.739c9.822,0,17.771-7.935,17.771-17.739 c0-9.822-7.949-17.77-17.771-17.77C160.363,305.816,152.429,313.765,152.429,323.586z"/> <path d="M131.707,400.379c11.425,0,20.722-9.282,20.722-20.722c0-11.423-9.297-20.721-20.722-20.721 c-11.439,0-20.719,9.297-20.719,20.721C110.988,391.097,120.268,400.379,131.707,400.379z"/> <path d="M189.842,446.042c-77.315,0-140.225-62.909-140.225-140.225c0-77.315,62.909-140.225,140.225-140.225 c77.332,0,140.241,62.909,140.241,140.225c0,5.637-0.43,11.166-1.079,16.631l41.661-17.315 c-0.335-89.17-65.591-163.138-150.83-177.459c2.566-6.932,6.81-12.952,12.313-17.644c1.787,2.024,3.727,3.937,5.927,5.6 c17.405,13.153,44.615,28.844,75.364,28.844c1.333,0,2.649-0.031,3.998-0.095c39.855-1.793,87.375-31.129,112.126-48.455 c6.743-4.697,10.566-12.407,10.218-20.722c-0.396-8.187-4.887-15.517-11.995-19.594c-25.846-14.819-75.872-40.03-116.061-38.206 c-32.256,1.444-59.387,20.229-76.49,35.762c-7.063,6.439-11.435,15.021-12.76,24.25c-17.746,10.183-30.975,27.17-35.828,47.721 C88.412,126.864,9,207.177,9,305.816c0,99.719,81.123,180.842,180.842,180.842c13.524,0,26.661-1.611,39.346-4.439 c-10.821-10.797-20.204-23.158-27.95-36.755C197.468,445.77,193.688,446.042,189.842,446.042z M313.186,49.864l2.713-0.063 c26.877,0,61.894,15.898,83.504,27.274c-32.494,21.086-63.053,33.922-83.409,34.842l-2.554,0.063 c-15.125,0-29.623-5.889-41.607-12.874l72.578-3.262c8.964-0.396,15.897-7.997,15.501-16.961 c-0.413-8.964-8.044-16.183-16.961-15.501l-72.716,3.268C282.248,58.1,297.135,50.586,313.186,49.864z"/> <path d="M480.526,306.134c0-0.016-0.017-0.016-0.017-0.033c-1.688-4.055-5.621-6.505-9.76-6.505c-1.35,0-2.721,0.261-4.044,0.811 L227.381,399.87c-5.363,2.237-7.933,8.393-5.711,13.789c0,0.015,0.016,0.032,0.016,0.032 c22.381,53.822,74.648,86.356,129.603,86.356c17.896,0,36.075-3.45,53.604-10.738C476.258,459.654,510.193,377.467,480.526,306.134 z M328.861,441.377c-0.317,2.316-1.651,4.378-3.665,5.584c-1.192,0.725-2.557,1.095-3.931,1.095c-0.913,0-1.829-0.163-2.701-0.492 c-17.247-6.411-32.494-17.865-43.537-33.366c-1.349-1.904-1.762-4.332-1.109-6.584c0.649-2.221,2.251-4.062,4.426-4.983 l54.293-22.561c0.344-0.142,0.703-0.211,1.062-0.211c0.604,0,1.202,0.197,1.7,0.575c0.793,0.588,1.189,1.587,1.079,2.555 L328.861,441.377z M411.111,432.174c-7.062,5.839-15.059,10.773-23.958,14.455c-8.869,3.696-18.009,5.9-27.1,6.773 c-0.247,0.024-0.493,0.036-0.737,0.036c-2.07,0-4.051-0.831-5.499-2.336c-1.632-1.682-2.395-4.013-2.095-6.346l7.648-58.782 c0.144-0.985,0.778-1.811,1.684-2.19c0.352-0.146,0.722-0.219,1.088-0.219c0.593,0,1.176,0.191,1.656,0.583l47.059,36.001 c1.855,1.428,2.951,3.633,2.999,5.965C413.903,428.446,412.888,430.683,411.111,432.174z M436.211,398.665 c-0.936,2.126-2.856,3.712-5.108,4.251c-0.614,0.155-1.238,0.231-1.86,0.231c-1.674,0-3.323-0.55-4.677-1.579l-46.71-35.747 c-0.777-0.634-1.189-1.602-1.063-2.57c0.109-0.999,0.778-1.824,1.682-2.188l54.277-22.579c0.942-0.393,1.934-0.585,2.922-0.585 c1.289,0,2.574,0.327,3.742,0.965c2.016,1.112,3.459,3.11,3.855,5.411C446.461,363.029,443.844,381.912,436.211,398.665z"/> </g> </g>
</svg>