<!DOCTYPE svg PUBLIC "-//W3C//DTD SVG 1.1//EN" "http://www.w3.org/Graphics/SVG/1.1/DTD/svg11.dtd">
<!-- Uploaded to: SVG Repo, www.svgrepo.com, Transformed by: SVG Repo Mixer Tools -->
<svg fill="#d70909" height="800px" width="800px" version="1.1" id="Capa_1" xmlns="http://www.w3.org/2000/svg" xmlns:xlink="http://www.w3.org/1999/xlink" viewBox="0 0 372 372" xml:space="preserve" stroke="#d70909">
<g id="SVGRepo_bgCarrier" stroke-width="0"/>
<g id="SVGRepo_tracerCarrier" stroke-linecap="round" stroke-linejoin="round"/>
<g id="SVGRepo_iconCarrier"> <g> <path d="M186,0C83.439,0,0,83.439,0,186s83.439,186,186,186s186-83.439,186-186S288.561,0,186,0z M311.911,294.056L265,286.709 v-36.781h11.482c14.195,0,25.744-11.549,25.744-25.744v-20.579c0-5.523-4.478-10-10-10s-10,4.477-10,10v20.579 c0,3.167-2.577,5.744-5.744,5.744H265v-73.341c0-5.523-4.478-10-10-10s-10,4.477-10,10v91.747h-15.667 c-3.492,0-6.333-2.841-6.333-6.333v-14.32c0-5.523-4.478-10-10-10s-10,4.477-10,10V242c0,14.521,11.813,26.333,26.333,26.333H245 v15.243L33.322,250.423c-0.108-0.017-0.216-0.021-0.323-0.034c-7.039-16.664-11.421-34.711-12.639-53.606l66.119-66.118 c4.741-4.742,12.459-4.743,17.2,0l37.921,37.921c0.563,0.563,1.181,1.035,1.831,1.436l-20.205,20.204 c-3.905,3.905-3.905,10.237,0,14.143c1.953,1.953,4.512,2.929,7.071,2.929c2.559,0,5.119-0.977,7.071-2.929l103.303-103.302 c4.741-4.743,12.459-4.743,17.19-0.01l93.88,94.141C349.676,232.835,335.015,267.172,311.911,294.056z M186,20 c84.734,0,154.833,63.818,164.781,145.911l-78.768-78.987c-12.541-12.541-32.944-12.539-45.485,0l-69.35,69.35 c-0.401-0.649-0.873-1.267-1.436-1.83l-37.921-37.922c-12.541-12.54-32.944-12.538-45.485,0l-51.341,51.341 C30.06,84.832,100.596,20,186,20z M44.3,272.386L245,303.82v12.671c0,5.523,4.478,10,10,10s10-4.477,10-10v-9.539l29.463,4.614 C265.35,336.748,227.423,352,186,352C126.089,352,73.493,320.095,44.3,272.386z"/> </g> </g>
</svg>